<svg width="26" height="27" viewBox="0 0 26 27" fill="none" xmlns="http://www.w3.org/2000/svg">
<path d="M3.25003 13.5L5.4167 11.25M5.4167 11.25L13 3.375L20.5834 11.25M5.4167 11.25V22.5C5.4167 22.7984 5.53083 23.0845 5.734 23.2955C5.93716 23.5065 6.21271 23.625 6.50003 23.625H9.75003C10.0373 23.625 10.3129 23.5065 10.5161 23.2955C10.7192 23.0845 10.8334 22.7984 10.8334 22.5V18C10.8334 17.7016 10.9475 17.4155 11.1507 17.2045C11.3538 16.9935 11.6294 16.875 11.9167 16.875H14.0834C14.3707 16.875 14.6462 16.9935 14.8494 17.2045C15.0526 17.4155 15.1667 17.7016 15.1667 18V22.5C15.1667 22.7984 15.2808 23.0845 15.484 23.2955C15.6872 23.5065 15.9627 23.625 16.25 23.625H19.5C19.7874 23.625 20.0629 23.5065 20.2661 23.2955C20.4692 23.0845 20.5834 22.7984 20.5834 22.5V11.25M20.5834 11.25L22.75 13.5" stroke="white" stroke-width="2.21053" stroke-linecap="round" stroke-linejoin="round"/>
</svg>
