<svg width="28" height="29" viewBox="0 0 28 29" fill="none" xmlns="http://www.w3.org/2000/svg">
<g clip-path="url(#clip0_105_493)">
<path d="M9.33336 14.5H4.6667C4.02236 14.5 3.50003 15.041 3.50003 15.7083V22.9583C3.50003 23.6257 4.02236 24.1667 4.6667 24.1667H9.33336C9.9777 24.1667 10.5 23.6257 10.5 22.9583V15.7083C10.5 15.041 9.9777 14.5 9.33336 14.5Z" stroke="white" stroke-width="2.12245" stroke-linecap="round" stroke-linejoin="round"/>
<path d="M23.3333 9.66663H18.6666C18.0223 9.66663 17.5 10.2076 17.5 10.875V22.9583C17.5 23.6256 18.0223 24.1666 18.6666 24.1666H23.3333C23.9776 24.1666 24.5 23.6256 24.5 22.9583V10.875C24.5 10.2076 23.9776 9.66663 23.3333 9.66663Z" stroke="white" stroke-width="2.12245" stroke-linecap="round" stroke-linejoin="round"/>
<path d="M16.3333 4.83337H11.6667C11.0223 4.83337 10.5 5.37436 10.5 6.04171V22.9584C10.5 23.6257 11.0223 24.1667 11.6667 24.1667H16.3333C16.9777 24.1667 17.5 23.6257 17.5 22.9584V6.04171C17.5 5.37436 16.9777 4.83337 16.3333 4.83337Z" stroke="white" stroke-width="2.12245" stroke-linecap="round" stroke-linejoin="round"/>
<path d="M4.66669 24.1667H21" stroke="white" stroke-width="2.12245" stroke-linecap="round" stroke-linejoin="round"/>
</g>
<defs>
<clipPath id="clip0_105_493">
<rect width="28" height="29" fill="white"/>
</clipPath>
</defs>
</svg>
