<svg width="13" height="13" viewBox="0 0 13 13" fill="none" xmlns="http://www.w3.org/2000/svg">
<g clip-path="url(#clip0_108_111)">
<path d="M6.29089 3.23119H2.79089C2.52568 3.23119 2.27132 3.33655 2.08379 3.52409C1.89625 3.71162 1.79089 3.96598 1.79089 4.23119V11.2312C1.79089 11.4964 1.89625 11.7508 2.08379 11.9383C2.27132 12.1258 2.52568 12.2312 2.79089 12.2312H9.79089C10.0561 12.2312 10.3105 12.1258 10.498 11.9383C10.6855 11.7508 10.7909 11.4964 10.7909 11.2312V7.73119M10.0409 2.48119C10.2398 2.28228 10.5096 2.17053 10.7909 2.17053C11.0722 2.17053 11.342 2.28228 11.5409 2.48119C11.7398 2.6801 11.8516 2.94989 11.8516 3.23119C11.8516 3.5125 11.7398 3.78228 11.5409 3.98119L6.79089 8.73119L4.79089 9.23119L5.29089 7.23119L10.0409 2.48119Z" stroke="white" stroke-width="1.62672" stroke-linecap="round" stroke-linejoin="round"/>
</g>
<defs>
<clipPath id="clip0_108_111">
<rect width="12" height="12" fill="white" transform="translate(0.790863 0.52832)"/>
</clipPath>
</defs>
</svg>
