<svg width="30" height="31" viewBox="0 0 30 31" fill="none" xmlns="http://www.w3.org/2000/svg">
<path fill-rule="evenodd" clip-rule="evenodd" d="M30 15.957C30 24.2413 23.2843 30.957 15 30.957C6.71571 30.957 -1.52588e-05 24.2413 -1.52588e-05 15.957C-1.52588e-05 7.67276 6.71571 0.957031 15 0.957031C23.2843 0.957031 30 7.67276 30 15.957ZM19.3266 14.5046C19.0118 14.5069 18.7322 14.2819 18.6761 13.9615C18.6135 13.6045 18.8522 13.2644 19.2093 13.2019C20.5395 12.9688 22.0564 13.191 23.1591 13.9227L23.1603 13.9235C23.914 14.426 24.3778 15.1541 24.3778 15.9658C24.3778 16.7775 23.914 17.5056 23.1603 18.0081C22.0657 18.7406 20.567 18.962 19.2401 18.7392C18.8827 18.6792 18.6415 18.3408 18.7015 17.9834C18.7552 17.6638 19.0313 17.4373 19.3447 17.4357L19.3266 14.5046ZM10.6472 14.5046C10.9619 14.5069 11.2415 14.2819 11.2977 13.9615C11.3602 13.6045 11.1215 13.2644 10.7645 13.2019C9.4342 12.9688 7.91737 13.191 6.81465 13.9227L6.81347 13.9235C6.05976 14.426 5.59593 15.1541 5.59593 15.9658C5.59593 16.7773 6.05951 17.5052 6.81288 18.0077C7.90747 18.7406 9.40648 18.962 10.7336 18.7392C11.0911 18.6792 11.3322 18.3408 11.2722 17.9834C11.2185 17.6638 10.9424 17.4373 10.6291 17.4357L10.6472 14.5046ZM17.9103 24.5531C17.0799 25.1083 16.023 25.3655 15 25.3655C13.977 25.3655 12.9194 25.1079 12.089 24.5526C11.3358 24.0501 10.8722 23.3222 10.8722 22.5108C10.8722 21.6991 11.336 20.971 12.0897 20.4685L12.0913 20.4674C12.9217 19.9173 13.9806 19.6626 15.0033 19.6626C16.0257 19.6626 17.0834 19.9173 17.9103 20.4685C18.664 20.971 19.1278 21.6991 19.1278 22.5108C19.1278 23.3223 18.6637 24.0506 17.9103 24.5531ZM9.80249 6.55077C8.18715 6.55077 6.88874 7.86124 6.88874 9.46452L6.88875 9.46921C6.9 11.0433 8.13904 12.3213 9.69998 12.3778C9.7357 12.3791 9.77144 12.3775 9.80687 12.373C9.84229 12.3775 9.87804 12.3791 9.91375 12.3778C11.4739 12.3213 12.7162 11.0431 12.7162 9.46452C12.7162 7.85084 11.4162 6.55077 9.80249 6.55077ZM20.1712 6.55077C18.5576 6.55077 17.2575 7.85084 17.2575 9.46452C17.2575 11.0431 18.4999 12.3213 20.06 12.3778C20.0957 12.3791 20.1314 12.3775 20.1669 12.373C20.2023 12.3775 20.238 12.3791 20.2738 12.3778C21.8347 12.3213 23.0737 11.0433 23.085 9.46921L23.085 9.46452C23.085 7.86124 21.7866 6.55077 20.1712 6.55077ZM14.9212 13.087C13.3076 13.087 12.0075 14.3871 12.0075 16.0008C12.0075 17.5793 13.2499 18.8576 14.81 18.9141C14.8457 18.9154 14.8814 18.9138 14.9169 18.9092C14.9507 18.9136 14.9849 18.9152 15.019 18.9143C16.5879 18.8688 17.8238 17.5753 17.835 16.0055L17.835 16.0008C17.835 14.3975 16.5366 13.087 14.9212 13.087Z" fill="white" fill-opacity="0.95"/>
</svg>
