<svg width="22" height="22" viewBox="0 0 22 22" fill="none" xmlns="http://www.w3.org/2000/svg">
<path d="M16.25 6.72203C16.1975 6.71328 16.1363 6.71328 16.0838 6.72203C14.8763 6.67828 13.9138 5.68953 13.9138 4.46453C13.9138 3.21328 14.92 2.20703 16.1713 2.20703C17.4225 2.20703 18.4288 3.22203 18.4288 4.46453C18.42 5.68953 17.4575 6.67828 16.25 6.72203Z" fill="#7708D9"/>
<path d="M15.3488 13.092C16.5475 13.2933 17.8688 13.0833 18.7963 12.462C20.03 11.6395 20.03 10.292 18.7963 9.46954C17.86 8.84829 16.5213 8.63828 15.3225 8.84828" fill="#7708D9"/>
<path d="M5.72376 6.72203C5.77626 6.71328 5.83751 6.71328 5.89001 6.72203C7.09751 6.67828 8.06001 5.68953 8.06001 4.46453C8.06001 3.21328 7.05376 2.20703 5.80251 2.20703C4.55126 2.20703 3.54501 3.22203 3.54501 4.46453C3.55376 5.68953 4.51626 6.67828 5.72376 6.72203Z" fill="#7708D9"/>
<path d="M6.62501 13.092C5.42626 13.2933 4.10501 13.0833 3.17751 12.462C1.94376 11.6395 1.94376 10.292 3.17751 9.46954C4.11376 8.84829 5.45251 8.63828 6.65126 8.84828" fill="#7708D9"/>
<path d="M11 13.2583C10.9475 13.2495 10.8863 13.2495 10.8338 13.2583C9.62626 13.2145 8.66376 12.2258 8.66376 11.0008C8.66376 9.74953 9.67001 8.74328 10.9213 8.74328C12.1725 8.74328 13.1788 9.75828 13.1788 11.0008C13.17 12.2258 12.2075 13.2233 11 13.2583Z" fill="#7708D9"/>
<path d="M8.45376 16.0145C7.22001 16.837 7.22001 18.1845 8.45376 19.007C9.85376 19.9433 12.1463 19.9433 13.5463 19.007C14.78 18.1845 14.78 16.837 13.5463 16.0145C12.155 15.087 9.85376 15.087 8.45376 16.0145Z" fill="#7708D9"/>
<path d="M15.3488 13.092C16.5475 13.2933 17.8688 13.0833 18.7963 12.462C20.03 11.6395 20.03 10.292 18.7963 9.46954C17.86 8.84829 16.5213 8.63828 15.3225 8.84828M6.62501 13.092C5.42626 13.2933 4.10501 13.0833 3.17751 12.462C1.94376 11.6395 1.94376 10.292 3.17751 9.46954C4.11376 8.84829 5.45251 8.63828 6.65126 8.84828M16.25 6.72203C16.1975 6.71328 16.1363 6.71328 16.0838 6.72203C14.8763 6.67828 13.9138 5.68953 13.9138 4.46453C13.9138 3.21328 14.92 2.20703 16.1713 2.20703C17.4225 2.20703 18.4288 3.22203 18.4288 4.46453C18.42 5.68953 17.4575 6.67828 16.25 6.72203ZM5.72376 6.72203C5.77626 6.71328 5.83751 6.71328 5.89001 6.72203C7.09751 6.67828 8.06001 5.68953 8.06001 4.46453C8.06001 3.21328 7.05376 2.20703 5.80251 2.20703C4.55126 2.20703 3.54501 3.22203 3.54501 4.46453C3.55376 5.68953 4.51626 6.67828 5.72376 6.72203ZM11 13.2583C10.9475 13.2495 10.8863 13.2495 10.8338 13.2583C9.62626 13.2145 8.66376 12.2258 8.66376 11.0008C8.66376 9.74953 9.67001 8.74328 10.9213 8.74328C12.1725 8.74328 13.1788 9.75828 13.1788 11.0008C13.17 12.2258 12.2075 13.2233 11 13.2583ZM8.45376 16.0145C7.22001 16.837 7.22001 18.1845 8.45376 19.007C9.85376 19.9433 12.1463 19.9433 13.5463 19.007C14.78 18.1845 14.78 16.837 13.5463 16.0145C12.155 15.087 9.85376 15.087 8.45376 16.0145Z" stroke="#7708D9" stroke-width="1.31251" stroke-linecap="round" stroke-linejoin="round"/>
</svg>
