<svg width="24" height="25" viewBox="0 0 24 25" fill="none" xmlns="http://www.w3.org/2000/svg">
<path d="M21 18.707C21.6904 18.707 22.25 18.1474 22.25 17.457C22.25 16.7667 21.6904 16.207 21 16.207V18.707ZM15.6 16.207C14.9096 16.207 14.35 16.7667 14.35 17.457C14.35 18.1474 14.9096 18.707 15.6 18.707V16.207ZM17.05 20.1569C17.05 20.8472 17.6096 21.4069 18.3 21.4069C18.9904 21.4069 19.55 20.8472 19.55 20.1569H17.05ZM19.55 14.7569C19.55 14.0665 18.9904 13.5069 18.3 13.5069C17.6096 13.5069 17.05 14.0665 17.05 14.7569H19.55ZM13.932 22.009C14.6153 21.9109 15.0898 21.2774 14.9917 20.594C14.8936 19.9107 14.2601 19.4362 13.5767 19.5343L13.932 22.009ZM12.8697 15.8074C13.5563 15.8794 14.1712 15.3811 14.2432 14.6946C14.3152 14.008 13.8169 13.393 13.1303 13.321L12.8697 15.8074ZM11 19.707C8.67546 19.707 6.86657 19.3311 5.68872 18.7944C4.4422 18.2265 4.25 17.6715 4.25 17.457H1.75C1.75 19.1756 3.11841 20.3706 4.65219 21.0694C6.25464 21.7995 8.44575 22.207 11 22.207V19.707ZM4.25 17.457C4.25 17.6686 4.125 17.6159 4.47806 17.3388C4.7869 17.0964 5.29379 16.8228 5.9849 16.5665C7.35754 16.0575 9.20994 15.707 11 15.707V13.207C8.92407 13.207 6.77646 13.6066 5.11561 14.2225C4.28997 14.5287 3.52173 14.9114 2.93463 15.3721C2.39175 15.7982 1.75 16.4955 1.75 17.457H4.25ZM12.75 8.01204C12.75 8.87419 11.9686 9.70703 11 9.70703V12.207C13.3451 12.207 15.25 10.2591 15.25 8.01204H12.75ZM11 9.70703C10.0314 9.70703 9.25 8.87419 9.25 8.01204H6.75C6.75 10.2591 8.65491 12.207 11 12.207V9.70703ZM9.25 8.01204C9.25 7.0909 10.089 6.20703 11 6.20703V3.70703C8.59725 3.70703 6.75 5.82395 6.75 8.01204H9.25ZM11 6.20703C11.911 6.20703 12.75 7.0909 12.75 8.01204H15.25C15.25 5.82395 13.4027 3.70703 11 3.70703V6.20703ZM21 16.207H18.3V18.707H21V16.207ZM18.3 16.207H15.6V18.707H18.3V16.207ZM19.55 20.1569V17.457H17.05V20.1569H19.55ZM19.55 17.457V14.7569H17.05V17.457H19.55ZM13.5767 19.5343C12.8035 19.6453 11.9412 19.707 11 19.707V22.207C12.049 22.207 13.0306 22.1384 13.932 22.009L13.5767 19.5343ZM11 15.707C11.5986 15.707 12.2332 15.7407 12.8697 15.8074L13.1303 13.321C12.4114 13.2457 11.6898 13.207 11 13.207V15.707Z" fill="white"/>
</svg>
