<svg width="24" height="25" viewBox="0 0 24 25" fill="none" xmlns="http://www.w3.org/2000/svg">
<path fill-rule="evenodd" clip-rule="evenodd" d="M13.6763 5.2733C13.2488 3.51827 10.7512 3.51827 10.3237 5.2733C10.2599 5.53702 10.1347 5.78195 9.95831 5.98815C9.78194 6.19435 9.55938 6.356 9.30874 6.45994C9.0581 6.56388 8.78646 6.60717 8.51592 6.5863C8.24538 6.56543 7.9836 6.48097 7.75187 6.33982C6.20832 5.3993 4.44201 7.16558 5.38254 8.70911C5.99006 9.70587 5.45117 11.0064 4.31713 11.282C2.56096 11.7084 2.56096 14.2071 4.31713 14.6323C4.58093 14.6962 4.8259 14.8215 5.03211 14.998C5.23831 15.1745 5.39991 15.3972 5.50375 15.648C5.6076 15.8988 5.65074 16.1705 5.62968 16.4411C5.60862 16.7117 5.52394 16.9736 5.38254 17.2052C4.44201 18.7488 6.20832 20.515 7.75187 19.5745C7.98356 19.4331 8.24536 19.3485 8.51597 19.3274C8.78658 19.3063 9.05834 19.3495 9.30912 19.4533C9.5599 19.5572 9.7826 19.7188 9.95911 19.925C10.1356 20.1312 10.2609 20.3761 10.3248 20.6399C10.7512 22.3961 13.2499 22.3961 13.6752 20.6399C13.7393 20.3763 13.8647 20.1315 14.0413 19.9254C14.2178 19.7193 14.4405 19.5578 14.6912 19.454C14.9419 19.3502 15.2135 19.307 15.4841 19.328C15.7546 19.3489 16.0164 19.4334 16.2481 19.5745C17.7917 20.515 19.558 18.7488 18.6175 17.2052C18.4763 16.9735 18.3918 16.7117 18.3709 16.4412C18.35 16.1707 18.3932 15.899 18.497 15.6483C18.6008 15.3976 18.7623 15.1749 18.9683 14.9984C19.1744 14.8219 19.4192 14.6964 19.6829 14.6323C21.439 14.2059 21.439 11.7073 19.6829 11.282C19.4191 11.2181 19.1741 11.0928 18.9679 10.9163C18.7617 10.7398 18.6001 10.5171 18.4962 10.2663C18.3924 10.0156 18.3493 9.7438 18.3703 9.4732C18.3914 9.2026 18.4761 8.94079 18.6175 8.70911C19.558 7.16558 17.7917 5.3993 16.2481 6.33982C16.0164 6.48121 15.7546 6.56589 15.484 6.58695C15.2134 6.60801 14.9417 6.56487 14.6909 6.46103C14.4401 6.35719 14.2174 6.19559 14.0409 5.98939C13.8644 5.78319 13.7391 5.53822 13.6752 5.27443L13.6763 5.2733Z" stroke="white" stroke-width="2.5"/>
<path d="M14 12.957C14 14.0616 13.1046 14.957 12 14.957C10.8954 14.957 10 14.0616 10 12.957C10 11.8525 10.8954 10.957 12 10.957C13.1046 10.957 14 11.8525 14 12.957Z" stroke="white" stroke-width="2.5"/>
</svg>
